<svg width="187" height="244" viewBox="0 0 187 244" fill="none" xmlns="http://www.w3.org/2000/svg">
<g clip-path="url(#clip0)">
<path d="M171.53 129.882H141.559V102.103C141.559 93.8103 134.841 87.0879 126.553 87.0879C118.265 87.0879 111.547 93.8103 111.547 102.103V129.131V144.146C111.547 152.439 118.224 159.912 126.512 159.912H171.53C179.818 159.912 186.536 153.19 186.536 144.897C186.536 136.604 179.818 129.882 171.53 129.882Z" fill="url(#paint0_linear)"/>
<path opacity="0.1" d="M171.532 129.882H141.559V102.103C141.559 93.8103 134.84 87.0879 126.553 87.0879C118.265 87.0879 111.547 93.8103 111.547 102.103V129.131V144.146C111.547 152.439 118.226 159.912 126.514 159.912H171.532C179.82 159.912 186.538 153.19 186.538 144.897C186.538 136.604 179.82 129.882 171.532 129.882Z" fill="#020202"/>
<path d="M132.554 219.975H129.553C127.895 219.975 126.511 217.878 126.511 216.221V195.95H126.552V54.0545C126.552 46.4372 124.873 39.2148 121.882 32.7207C126.499 29.4593 129.55 24.1033 129.55 18.0176C129.55 8.06691 121.484 -0.000854492 111.54 -0.000854492C105.449 -0.000854492 100.074 3.03526 96.8159 7.666C90.9771 4.97825 84.5485 3.36409 77.7763 3.06829C77.5872 3.05928 77.3966 3.05027 77.2076 3.04276C76.966 3.03526 76.7289 3.01574 76.4873 3.01123C76.1601 3.00523 75.8375 3.02174 75.5119 3.02324C75.1863 3.02324 74.8636 3.00523 74.5365 3.01123C74.2949 3.01574 74.0563 3.03526 73.8162 3.04276C73.6256 3.05027 73.4366 3.05778 73.2475 3.06829C66.4738 3.36409 60.0452 4.97825 54.2078 7.666C50.947 3.03526 45.5719 -0.000854492 39.4809 -0.000854492C29.5364 -0.000854492 21.4707 8.06691 21.4707 18.0176C21.4707 24.1033 24.5214 29.4608 29.1388 32.7207C26.1481 39.2133 24.4689 46.4372 24.4689 54.0545V195.95H24.5094V216.221C24.5094 217.878 23.1258 219.975 21.4677 219.975H18.4665C8.52197 219.975 0.459229 228.042 0.459229 237.993C0.459229 241.31 3.14681 243.999 6.46164 243.999H51.7348C54.9086 243.999 57.5227 240.673 57.5227 237.497V198.202C57.5227 196.543 58.8267 195.95 60.4833 195.95H90.5374C92.1941 195.95 93.4981 196.543 93.4981 198.202V237.497C93.4981 240.673 96.1122 243.999 99.2859 243.999H144.559C147.874 243.999 150.562 241.31 150.562 237.993C150.562 228.042 142.499 219.975 132.554 219.975Z" fill="url(#paint1_linear)"/>
<path opacity="0.3" d="M57.4821 54.0538C60.7972 54.0538 63.4846 51.3647 63.4846 48.0476C63.4846 44.7305 60.7972 42.0414 57.4821 42.0414C54.1671 42.0414 51.4797 44.7305 51.4797 48.0476C51.4797 51.3647 54.1671 54.0538 57.4821 54.0538Z" fill="black"/>
<path opacity="0.3" d="M66.5268 33.7832C66.5268 35.4424 65.1837 36.7863 63.5256 36.7863H51.5207C49.8626 36.7863 48.5195 35.4424 48.5195 33.7832C48.5195 32.124 49.8626 30.7802 51.5207 30.7802H63.5256C65.1837 30.7802 66.5268 32.124 66.5268 33.7832Z" fill="black"/>
<path opacity="0.3" d="M93.5798 54.0538C96.8948 54.0538 99.5822 51.3647 99.5822 48.0476C99.5822 44.7305 96.8948 42.0414 93.5798 42.0414C90.2648 42.0414 87.5774 44.7305 87.5774 48.0476C87.5774 51.3647 90.2648 54.0538 93.5798 54.0538Z" fill="black"/>
<path opacity="0.3" d="M84.5327 33.7832C84.5327 32.124 85.8758 30.7802 87.5339 30.7802H99.5387C101.197 30.7802 102.54 32.124 102.54 33.7832C102.54 35.4424 101.197 36.7863 99.5387 36.7863H87.5339C85.8758 36.7863 84.5327 35.4424 84.5327 33.7832Z" fill="black"/>
<path opacity="0.3" d="M83.6401 61.5662L75.5309 61.5797L67.4216 61.5662C66.0786 61.5647 64.9936 62.814 65.3193 64.1158C66.4597 68.6865 71.0291 72.0725 75.5309 72.0725C80.0327 72.0725 84.602 68.6865 85.7425 64.1158C86.0681 62.814 84.9832 61.5647 83.6401 61.5662Z" fill="black"/>
<path d="M81.4904 129.882H42.5152V102.103C42.5152 93.8103 35.797 87.0879 27.5092 87.0879C19.2214 87.0879 12.5032 93.8103 12.5032 102.103V129.131V144.146C12.5032 152.439 19.1809 159.912 27.4687 159.912H81.4904C89.7782 159.912 96.4964 153.19 96.4964 144.897C96.4964 136.604 89.7782 129.882 81.4904 129.882Z" fill="url(#paint2_linear)"/>
<path opacity="0.1" d="M81.4919 129.882H42.5152V102.103C42.5152 93.8103 35.797 87.0879 27.5092 87.0879C19.2214 87.0879 12.5032 93.8103 12.5032 102.103V129.131V144.146C12.5032 152.439 19.1824 159.912 27.4702 159.912H81.4919C89.7797 159.912 96.4979 153.19 96.4979 144.897C96.4979 136.604 89.7797 129.882 81.4919 129.882Z" fill="#020202"/>
<path d="M46.5281 12.4618C41.6962 15.9154 37.4645 20.2398 34.0131 25.1649C31.8522 23.5432 30.4717 20.9305 30.4717 18.0175C30.4717 13.0324 34.4933 9.0083 39.4753 9.0083C42.3565 9.0083 44.9075 10.3597 46.5281 12.4618Z" fill="url(#paint3_linear)"/>
<path d="M111.058 9.0083C116.04 9.0083 120.061 13.0324 120.061 18.0175C120.061 20.9305 118.681 23.5432 116.52 25.1649C113.069 20.2398 108.837 15.9154 104.005 12.4618C105.626 10.3597 108.177 9.0083 111.058 9.0083Z" fill="url(#paint4_linear)"/>
</g>
<defs>
<linearGradient id="paint0_linear" x1="149.041" y1="87.0879" x2="149.041" y2="156.386" gradientUnits="userSpaceOnUse">
<stop stop-color="#DE784F"/>
<stop offset="1" stop-color="#D16B4D"/>
</linearGradient>
<linearGradient id="paint1_linear" x1="75.5104" y1="245.017" x2="75.5104" y2="-0.000854492" gradientUnits="userSpaceOnUse">
<stop stop-color="#B95F4B"/>
<stop offset="1" stop-color="#DB8A4D"/>
</linearGradient>
<linearGradient id="paint2_linear" x1="54.4998" y1="87.0879" x2="54.4998" y2="156.386" gradientUnits="userSpaceOnUse">
<stop stop-color="#DE784F"/>
<stop offset="1" stop-color="#D16B4D"/>
</linearGradient>
<linearGradient id="paint3_linear" x1="32.2706" y1="10.8187" x2="41.8365" y2="20.3786" gradientUnits="userSpaceOnUse">
<stop stop-opacity="0.12"/>
<stop offset="1" stop-color="#302926" stop-opacity="0.02"/>
</linearGradient>
<linearGradient id="paint4_linear" x1="118.262" y1="10.8187" x2="108.697" y2="20.3786" gradientUnits="userSpaceOnUse">
<stop stop-opacity="0.12"/>
<stop offset="1" stop-color="#302926" stop-opacity="0.02"/>
</linearGradient>
<clipPath id="clip0">
<rect width="187" height="244" fill="white"/>
</clipPath>
</defs>
</svg>
