<svg width="576" height="239" viewBox="0 0 576 239" fill="none" xmlns="http://www.w3.org/2000/svg">
<path d="M81.5 144C108.5 126.5 171.1 83.1 205.5 49.5C239.9 15.9 239.5 47.8333 235 68C242 104 270.6 178.2 329 187C387.4 195.8 406.333 99 408.5 49.5C408.833 34 413 6.7 427 21.5C444.5 40 430 38.5 438.5 62C447 85.5 464.5 140 532.5 163.5" stroke="url(#paint0_linear)" stroke-width="20" stroke-dasharray="4 4"/>
<circle cx="203.5" cy="50.5" r="41.5" fill="white"/>
<circle cx="336.5" cy="191.5" r="45.5" fill="white"/>
<circle cx="423.5" cy="42.5" r="41.5" fill="white"/>
<circle cx="531.5" cy="157.5" r="41.5" fill="white"/>
<path d="M337.5 239C363.181 239 384 218.181 384 192.5C384 166.819 363.181 146 337.5 146C311.819 146 291 166.819 291 192.5C291 218.181 311.819 239 337.5 239Z" fill="url(#paint1_linear)"/>
<path d="M203.5 92C226.42 92 245 73.4198 245 50.4997C245 27.5802 226.42 9 203.5 9C180.58 9 162 27.5802 162 50.4997C162 73.4198 180.58 92 203.5 92Z" fill="url(#paint2_linear)"/>
<path d="M263 35C263 30.8029 259.196 27 254.503 27C250.394 27 246.966 29.7238 246.177 33.3612C245.116 32.0397 243.432 31.2034 241.534 31.2034C238.947 31.2034 236.755 32.9015 236 35H263Z" fill="url(#paint3_linear)"/>
<path d="M260 57C260 52.8029 263.804 49 268.497 49C272.606 49 276.033 51.7238 276.823 55.3612C277.884 54.0397 279.568 53.2034 281.466 53.2034C284.053 53.2034 286.245 54.9015 287 57H260Z" fill="url(#paint4_linear)"/>
<path d="M226.5 62V62.014L211 99H226.5H242L226.5 62Z" fill="url(#paint5_linear)"/>
<path d="M261 85H253V99H261V85Z" fill="url(#paint6_linear)"/>
<path d="M254.546 93C254.407 93 254.266 92.9587 254.16 92.8756C253.947 92.7093 253.947 92.44 254.16 92.2738L254.774 91.776C254.876 91.6972 254.907 91.592 254.907 91.4805V88.4259C254.907 88.1904 255.152 88 255.454 88C255.755 88 256 88.1904 256 88.4259V91.4805C256 91.8195 255.855 92.1381 255.547 92.3773L254.92 92.8756C254.814 92.9587 254.686 93 254.546 93Z" fill="#CE5029"/>
<path d="M257 99V96.1206C257 95.7547 257.151 95.4112 257.391 95.1519L259.271 93.134C259.436 92.9553 259.709 92.9553 259.875 93.134C260.04 93.3126 260.042 93.6019 259.877 93.7805L257.989 95.7985C257.909 95.8849 257.847 95.999 257.847 96.1206V99H257Z" fill="#CE5029"/>
<path d="M257.5 90C257.224 90 257 89.821 257 89.6002V88.4003C257 88.179 257.224 88 257.5 88C257.776 88 258 88.179 258 88.4003V89.6002C258 89.821 257.776 90 257.5 90Z" fill="#CE5029"/>
<path d="M255.434 96C255.323 96 255.212 95.9559 255.127 95.8671C254.958 95.6894 254.958 95.4018 255.127 95.2242L257.026 93.2158C257.105 93.1327 257.132 93.0164 257.132 92.8984V91.4544C257.132 91.2034 257.326 91 257.566 91C257.806 91 258 91.2034 258 91.4544V92.8984C258 93.2559 257.881 93.606 257.64 93.8587L255.731 95.8671C255.647 95.9559 255.545 96 255.434 96Z" fill="#CE5029"/>
<path d="M259 99V97.3902C259 97.1747 259.223 97 259.5 97C259.776 97 260 97.1747 260 97.3902V99H259Z" fill="#CE5029"/>
<path d="M259.5 92C259.223 92 259 91.8011 259 91.5557V88.4448C259 88.1989 259.223 88 259.5 88C259.776 88 260 88.1989 260 88.4448V91.5557C260 91.8011 259.776 92 259.5 92Z" fill="#CE5029"/>
<path d="M255 99V97.3902C255 97.1747 255.224 97 255.5 97C255.777 97 256 97.1747 256 97.3902V99H255Z" fill="#CE5029"/>
<path d="M261 87H253V91H261V87Z" fill="url(#paint7_linear)"/>
<path d="M284.051 79.2728C270.607 73.5862 260.374 47.0878 260.374 47.0878C256.554 40.1403 253.499 47.0878 253.499 47.0878C253.499 47.0878 243.33 73.4204 229.948 79.2185C228.695 79.7618 228.678 81.5338 229.935 82.068C248.64 90.0206 266.68 89.9204 284.084 82.1087C285.322 81.5536 285.3 79.8008 284.051 79.2728Z" fill="url(#paint8_linear)"/>
<path d="M279.203 60.6609C267.92 55.8794 259.332 33.5963 259.332 33.5963C256.126 27.7546 253.562 33.5963 253.562 33.5963C253.562 33.5963 245.027 55.74 233.796 60.6154C232.744 61.0722 232.729 62.5623 233.784 63.0116C249.483 69.6992 264.625 69.615 279.231 63.0458C280.27 62.5788 280.252 61.1051 279.203 60.6609Z" fill="url(#paint9_linear)"/>
<path d="M272.441 41.8429C264.518 38.4828 258.488 22.8246 258.488 22.8246C256.238 18.7192 254.437 22.8246 254.437 22.8246C254.437 22.8246 248.444 38.385 240.559 41.8113C239.82 42.1321 239.81 43.1791 240.551 43.4948C251.574 48.194 262.205 48.1348 272.461 43.5189C273.189 43.1906 273.176 42.1551 272.441 41.8429Z" fill="url(#paint10_linear)"/>
<path d="M264 98.5066C264 96.5698 265.567 95 267.5 95C269.433 95 271 96.5698 271 98.5066V99H264V98.5066Z" fill="url(#paint11_linear)"/>
<path d="M267 98.1569V99H261V93C261.462 93 261.624 93.02 261.923 93.0595C264.799 93.4405 267 95.5787 267 98.1569Z" fill="url(#paint12_linear)"/>
<path d="M250 98.5066C250 96.5698 248.433 95 246.5 95C244.567 95 243 96.5698 243 98.5066V99H250V98.5066Z" fill="url(#paint13_linear)"/>
<path d="M253 93V99H247V98.1569C247 95.5787 249.201 93.4405 252.077 93.0595C252.377 93.02 252.538 93 253 93Z" fill="url(#paint14_linear)"/>
<path d="M257.49 85C251.252 85 244.955 84.2048 238.64 82.6144C238.17 82.4956 237.899 82.0674 238.035 81.6581C238.171 81.2483 238.663 81.0118 239.133 81.1306C251.56 84.2612 263.915 84.2286 275.853 81.0342C276.322 80.9091 276.817 81.1379 276.961 81.5457C277.105 81.953 276.841 82.3852 276.374 82.5102C270.172 84.1702 263.861 85 257.49 85Z" fill="url(#paint15_linear)"/>
<path d="M256.841 65C252.815 65 248.763 64.6152 244.707 63.8441C244.222 63.7521 243.914 63.3379 244.021 62.9188C244.128 62.4998 244.609 62.2334 245.094 62.3269C253.448 63.9141 261.786 63.8123 269.877 62.0244C270.359 61.9182 270.848 62.1688 270.972 62.5845C271.095 63.0001 270.804 63.4231 270.323 63.5293C265.889 64.5095 261.382 65 256.841 65Z" fill="url(#paint16_linear)"/>
<path d="M256.745 44C254.069 44 251.376 43.7058 248.681 43.1173C248.214 43.015 247.918 42.5529 248.02 42.0847C248.122 41.6166 248.583 41.3207 249.048 41.4213C254.735 42.6634 260.407 42.5321 265.908 41.0308C266.37 40.9045 266.844 41.178 266.97 41.6406C267.095 42.1033 266.823 42.5802 266.362 42.7055C263.201 43.5685 259.985 44 256.745 44Z" fill="url(#paint17_linear)"/>
<path d="M227 62L211.725 99H165L165.57 97.5857L165.957 96.663L180.275 62H227Z" fill="url(#paint18_linear)"/>
<path d="M183.217 27C180.129 27 177.528 29.1492 176.707 32.0879C175.832 31.548 174.812 31.2645 173.721 31.2645C170.941 31.2645 168.612 33.1764 168 36H189.756C189.915 35.5296 190 34.7406 190 34.0881C190 30.1896 186.963 27 183.217 27Z" fill="url(#paint19_linear)"/>
<path d="M168 99H166.846L165.701 97.7205L161.103 92.6726C160.946 92.5012 160.971 92.2398 161.16 92.0969V92.0939C161.347 91.9515 161.627 91.9733 161.783 92.1442L166.081 96.8737L168 99Z" fill="url(#paint20_linear)"/>
<path d="M181 62H180V57.4492C180 57.2011 180.247 57 180.523 57H180.511C180.787 57 181 57.2011 181 57.4492V62Z" fill="url(#paint21_linear)"/>
<path d="M161.229 94C161.194 94 161.157 93.9921 161.123 93.9748C161.011 93.9176 160.967 93.7836 161.026 93.6742L179.734 59.0908C179.774 59.0179 179.852 59 179.937 59H181.77C181.897 59 182 59.0993 182 59.2221C182 59.3454 181.897 59.4447 181.77 59.4447H180.076L161.432 93.9086C161.391 93.9843 161.312 94 161.229 94Z" fill="#FF601A"/>
<path d="M182.296 68L180 73H202V68H182.296Z" fill="url(#paint22_linear)"/>
<path d="M187.548 97H169.452C169.203 97 169 96.7763 169 96.4997C169 96.2237 169.203 96 169.452 96H187.548C187.797 96 188 96.2237 188 96.4997C188 96.7763 187.797 97 187.548 97Z" fill="#E8830A"/>
<path d="M181.542 94H171.458C171.205 94 171 93.7763 171 93.4997C171 93.2237 171.205 93 171.458 93H181.542C181.795 93 182 93.2237 182 93.4997C182 93.7763 181.795 94 181.542 94Z" fill="#E8830A"/>
<path d="M189.5 97H185.5C185.224 97 185 96.7763 185 96.4997C185 96.2237 185.224 96 185.5 96H189.5C189.776 96 190 96.2237 190 96.4997C190 96.7763 189.776 97 189.5 97Z" fill="#E8830A"/>
<path d="M181.5 94H180.5C180.224 94 180 93.7763 180 93.4997C180 93.2237 180.224 93 180.5 93H181.5C181.776 93 182 93.2237 182 93.4997C182 93.7763 181.776 94 181.5 94Z" fill="#E8830A"/>
<path d="M175.625 91H173.375C173.168 91 173 90.7762 173 90.5C173 90.2238 173.168 90 173.375 90H175.625C175.832 90 176 90.2238 176 90.5C176 90.7762 175.833 91 175.625 91Z" fill="#E8830A"/>
<path opacity="0.15" d="M218.325 82L217 86.2464V89L219 82.7914L218.325 82Z" fill="black"/>
<path d="M204.999 31.5786C203.634 36.4346 199.092 40 193.713 40C193.506 40 193.295 39.9955 193.083 39.9822C192.979 39.9777 192.875 39.9732 192.772 39.9599C192.569 39.9509 192.366 39.9292 192.164 39.9024C191.33 39.7965 190.524 39.6019 189.758 39.3321C189.42 39.2122 189.086 39.0795 188.767 38.934C188.659 38.885 188.555 38.8364 188.451 38.7835C186.406 37.766 184.699 36.1782 183.555 34.2363C182.888 33.1001 182.41 31.844 182.176 30.5081C182.135 30.2734 182.099 30.0392 182.072 29.8001C181.811 27.4473 182.27 25.2133 183.271 23.2937C184.203 21.4807 185.618 19.9458 187.348 18.8488C189.181 17.6767 191.366 17 193.713 17C195.705 17 197.583 17.491 199.228 18.3534C199.232 18.3534 199.232 18.3623 199.223 18.3623C199.201 18.3623 199.178 18.3579 199.156 18.3579C194.898 17.9863 190.97 20.9098 190.24 25.0455C189.326 30.2115 193.353 34.6924 198.443 34.6924C201.097 34.6924 203.463 33.4714 204.99 31.5741C204.994 31.5652 205.003 31.5697 204.999 31.5786Z" fill="url(#paint23_linear)"/>
<path d="M202 34.069C200.523 35.2738 198.628 36 196.567 36C191.334 36 187.194 31.3428 188.134 25.9728C188.592 23.3474 190.278 21.1956 192.515 20C190.987 21.2414 189.88 23.0072 189.523 25.053C188.583 30.4231 192.724 35.0809 197.957 35.0809C199.42 35.0809 200.796 34.7175 202 34.069Z" fill="url(#paint24_linear)"/>
<path d="M188 20.7654C188 22.5537 186.463 24 184.562 24C183.997 24 183.466 23.8754 183 23.6441C184.017 21.7498 185.559 20.1462 187.445 19C187.799 19.5083 188 20.1136 188 20.7654Z" fill="url(#paint25_linear)"/>
<path d="M193 39.692C193 39.797 192.984 39.9015 192.954 40C192.721 39.9932 192.489 39.9761 192.256 39.9556C191.301 39.8746 190.376 39.7257 189.498 39.5193C189.11 39.428 188.728 39.3265 188.361 39.2148C188.237 39.1777 188.118 39.1401 188 39.0996C188.366 38.4568 189.312 38 190.417 38C191.843 38 193 38.7579 193 39.692Z" fill="url(#paint26_linear)"/>
<path d="M201 68V68.9092H183.068L181.276 73H180L182.192 68H201Z" fill="url(#paint27_linear)"/>
<path d="M287 99H161V101H287V99Z" fill="url(#paint28_linear)"/>
<path d="M190.102 50.0751L190.449 51.1952C190.501 51.3651 190.635 51.4983 190.805 51.5511L191.925 51.8982C192.025 51.929 192.025 52.071 191.925 52.1018L190.805 52.4489C190.635 52.5012 190.502 52.6343 190.449 52.8048L190.102 53.9249C190.071 54.025 189.929 54.025 189.898 53.9249L189.551 52.8048C189.499 52.6349 189.366 52.5017 189.195 52.4489L188.075 52.1018C187.975 52.071 187.975 51.929 188.075 51.8982L189.195 51.5511C189.365 51.4988 189.499 51.3657 189.551 51.1952L189.898 50.0751C189.929 49.975 190.071 49.975 190.102 50.0751Z" fill="url(#paint29_linear)"/>
<path d="M232.102 27.0755L232.449 28.1954C232.501 28.3654 232.634 28.4985 232.804 28.5513L233.925 28.8984C234.025 28.9292 234.025 29.0706 233.925 29.102L232.804 29.4491C232.635 29.5013 232.501 29.6344 232.449 29.8044L232.102 30.9249C232.071 31.025 231.929 31.025 231.898 30.9249L231.551 29.8044C231.498 29.6344 231.365 29.5013 231.195 29.4491L230.075 29.102C229.975 29.0706 229.975 28.9292 230.075 28.8984L231.195 28.5513C231.365 28.4985 231.498 28.3654 231.551 28.1954L231.898 27.0755C231.929 26.9748 232.071 26.9748 232.102 27.0755Z" fill="url(#paint30_linear)"/>
<path d="M209.102 22.0751L209.449 23.1957C209.501 23.3657 209.635 23.4983 209.805 23.5511L210.925 23.8982C211.025 23.929 211.025 24.071 210.925 24.1018L209.805 24.4489C209.635 24.5017 209.501 24.6349 209.449 24.8048L209.102 25.9249C209.071 26.025 208.929 26.025 208.898 25.9249L208.551 24.8048C208.499 24.6349 208.365 24.5017 208.195 24.4489L207.075 24.1018C206.975 24.071 206.975 23.929 207.075 23.8982L208.195 23.5511C208.365 23.4988 208.498 23.3657 208.551 23.1957L208.898 22.0751C208.929 21.975 209.071 21.975 209.102 22.0751Z" fill="url(#paint31_linear)"/>
<path d="M162.239 95C162.178 95 162.117 94.9765 162.07 94.9302C161.977 94.8368 161.977 94.6857 162.07 94.5924L163.592 93.0704C163.686 92.9765 163.836 92.9765 163.93 93.0704C164.023 93.1638 164.023 93.3143 163.93 93.4076L162.407 94.9302C162.361 94.9765 162.3 95 162.239 95Z" fill="#FF601A"/>
<path d="M162.212 96C162.158 96 162.104 95.9791 162.062 95.9375C161.979 95.8546 161.979 95.721 162.062 95.6376L163.638 94.0621C163.721 93.9793 163.855 93.9793 163.938 94.0621C164.021 94.145 164.021 94.2792 163.938 94.362L162.362 95.9375C162.321 95.9791 162.266 96 162.212 96Z" fill="#FF601A"/>
<path d="M173.628 46.0751L174.061 47.1952C174.126 47.3651 174.293 47.4983 174.506 47.5511L175.906 47.8982C176.031 47.929 176.031 48.071 175.906 48.1018L174.506 48.4489C174.293 48.5012 174.127 48.6343 174.061 48.8048L173.628 49.9249C173.588 50.025 173.411 50.025 173.373 49.9249L172.939 48.8048C172.873 48.6349 172.707 48.5017 172.494 48.4489L171.094 48.1018C170.969 48.071 170.969 47.929 171.094 47.8982L172.494 47.5511C172.707 47.4988 172.873 47.3657 172.939 47.1952L173.373 46.0751C173.411 45.975 173.588 45.975 173.628 46.0751Z" fill="url(#paint32_linear)"/>
<path d="M180.898 63H180.651H178.575V63.4448H180.469L167 95.8166L167.42 96L180.957 63.4448H195V63H180.898Z" fill="#E28807"/>
<path d="M243.102 20.0751L243.449 21.1952C243.501 21.3652 243.634 21.4983 243.804 21.5511L244.925 21.8982C245.025 21.929 245.025 22.071 244.925 22.1018L243.804 22.4489C243.635 22.5012 243.501 22.6343 243.449 22.8048L243.102 23.9249C243.071 24.025 242.929 24.025 242.898 23.9249L242.551 22.8048C242.498 22.6348 242.366 22.5017 242.195 22.4489L241.075 22.1018C240.975 22.071 240.975 21.929 241.075 21.8982L242.195 21.5511C242.366 21.4988 242.498 21.3657 242.551 21.1952L242.898 20.0751C242.929 19.975 243.071 19.975 243.102 20.0751Z" fill="url(#paint33_linear)"/>
<path d="M185 34C186.104 34 187 33.105 187 32C187 30.8951 186.104 30 185 30C183.895 30 183 30.8951 183 32C183 33.105 183.895 34 185 34Z" fill="url(#paint34_linear)"/>
<path d="M284.115 82.2086C283.525 82.4845 282.94 82.7468 282.35 83C282.221 82.6066 281.941 82.2536 281.506 82.0637C275.923 79.6073 270.904 73.2923 267 66.8781C268.244 66.6335 269.484 66.3393 270.724 66C274.447 71.7499 279.031 77.1281 284.08 79.3496C285.29 79.8833 285.311 81.6475 284.115 82.2086Z" fill="url(#paint35_linear)"/>
<path d="M279.212 63.1192C278.503 63.4274 277.799 63.7182 277.085 64C276.953 63.7627 276.733 63.5616 276.436 63.4409C270.154 60.8706 264.685 53.1848 261 46.7022C262.308 46.541 263.611 46.3043 264.905 46C268.535 51.9912 273.528 58.4428 279.18 60.7584C280.259 61.1969 280.277 62.6587 279.212 63.1192Z" fill="url(#paint36_linear)"/>
<path d="M272.46 43.8829C271.566 44.2907 270.673 44.6617 269.775 45C269.752 44.9813 269.725 44.9725 269.698 44.9585C261.757 41.5471 255.71 25.6351 255.71 25.6351C255.096 24.504 254.519 23.9846 254 23.8321C254.257 23.2111 254.392 22.8541 254.392 22.8541C254.392 22.8541 256.197 18.6824 258.453 22.8541C258.453 22.8541 264.495 38.7661 272.437 42.1775C273.177 42.4971 273.191 43.5493 272.46 43.8829Z" fill="url(#paint37_linear)"/>
<path d="M262 93.0595V99H261V93C261.5 93 261.5 93.02 262 93.0595Z" fill="url(#paint38_linear)"/>
<path d="M179 34C178.457 33.297 177.777 32.6923 177 32.2255C177.234 31.4282 177.594 30.6809 178.057 30C178.794 31.4171 179.011 32.8184 179 34Z" fill="url(#paint39_linear)"/>
<path d="M311.333 183.529C311.216 183.529 311.102 183.539 310.986 183.547C312.041 182.131 312.667 180.368 312.667 178.456C312.667 173.786 308.936 170 304.333 170C300.715 170 297.637 172.341 296.485 175.611C295.338 174.443 293.753 173.721 292 173.721C288.502 173.721 285.667 176.598 285.667 180.147C285.667 180.875 285.791 181.572 286.012 182.225C285.789 182.196 285.564 182.176 285.333 182.176C282.388 182.176 280 184.6 280 187.588C280 190.577 282.388 193 285.333 193H311.333C313.911 193 316 190.88 316 188.265C316 185.649 313.911 183.529 311.333 183.529Z" fill="url(#paint40_linear)"/>
<path d="M257.348 133.479C257.011 133.479 256.738 133.209 256.738 132.875C256.738 130.654 255.313 128.693 253.192 127.993C252.872 127.887 252.699 127.545 252.805 127.228C252.912 126.91 253.257 126.74 253.577 126.844C256.197 127.709 257.958 130.132 257.958 132.875C257.958 133.209 257.684 133.479 257.348 133.479Z" fill="url(#paint41_linear)"/>
<path d="M246.069 133.782L246.032 133.739C245.883 132.415 245.276 131.223 244.377 130.33C244.694 129.453 245.167 128.648 245.767 127.955C246.566 131.322 246.069 133.782 246.069 133.782Z" fill="url(#paint42_linear)"/>
<path d="M237.546 137.54C236.811 136.844 235.857 136.372 234.796 136.242C234.598 135.676 234.491 135.068 234.485 134.439C236.132 134.787 237.104 136.511 237.546 137.54Z" fill="url(#paint43_linear)"/>
<path d="M389.611 173.176C389.426 173.176 389.244 173.191 389.062 173.204C390.731 170.988 391.722 168.228 391.722 165.235C391.722 157.926 385.815 152 378.528 152C372.799 152 367.925 155.663 366.101 160.782C364.286 158.954 361.775 157.824 359 157.824C353.462 157.824 348.972 162.327 348.972 167.882C348.972 169.022 349.17 170.113 349.518 171.135C349.166 171.09 348.809 171.059 348.444 171.059C343.781 171.059 340 174.851 340 179.529C340 184.207 343.781 188 348.444 188H389.611C393.692 188 397 184.682 397 180.588C397 176.495 393.692 173.176 389.611 173.176Z" fill="url(#paint44_linear)"/>
<path d="M328.678 121.538C328.147 121.538 327.717 121.112 327.717 120.586C327.717 117.091 325.47 114.002 322.125 112.9C321.62 112.734 321.348 112.195 321.515 111.695C321.683 111.196 322.227 110.927 322.731 111.092C326.863 112.453 329.64 116.268 329.64 120.586C329.64 121.112 329.209 121.538 328.678 121.538Z" fill="url(#paint45_linear)"/>
<path d="M310.892 122.015L310.834 121.948C310.599 119.862 309.642 117.985 308.224 116.58C308.724 115.199 309.469 113.932 310.416 112.841C311.675 118.142 310.892 122.015 310.892 122.015Z" fill="url(#paint46_linear)"/>
<path d="M297.452 127.932C296.294 126.836 294.789 126.093 293.116 125.888C292.804 124.998 292.636 124.04 292.626 123.049C295.222 123.597 296.755 126.312 297.452 127.932Z" fill="url(#paint47_linear)"/>
<path d="M83.1098 219.856C128.798 219.856 165.836 184.876 165.836 141.725C165.836 98.5752 128.798 63.5951 83.1098 63.5951C37.4213 63.5951 0.383545 98.5752 0.383545 141.725C0.383545 184.876 37.4213 219.856 83.1098 219.856Z" fill="url(#paint48_radial)"/>
<path d="M296.288 158.853C295.878 158.853 295.546 158.525 295.546 158.119C295.546 155.426 293.81 153.048 291.226 152.199C290.837 152.071 290.627 151.656 290.756 151.271C290.885 150.886 291.306 150.679 291.695 150.806C294.886 151.854 297.031 154.794 297.031 158.119C297.031 158.525 296.698 158.853 296.288 158.853Z" fill="url(#paint49_linear)"/>
<path d="M282.55 159.22L282.506 159.169C282.324 157.562 281.585 156.116 280.49 155.034C280.876 153.97 281.451 152.994 282.183 152.154C283.156 156.238 282.55 159.22 282.55 159.22Z" fill="url(#paint50_linear)"/>
<path d="M272.17 163.777C271.276 162.934 270.114 162.361 268.821 162.203C268.58 161.518 268.45 160.78 268.443 160.017C270.448 160.439 271.632 162.53 272.17 163.777Z" fill="url(#paint51_linear)"/>
<path d="M83.3287 183.964C107.382 183.964 126.88 164.465 126.88 140.412C126.88 116.359 107.382 96.8607 83.3287 96.8607C59.2758 96.8607 39.7771 116.359 39.7771 140.412C39.7771 164.465 59.2758 183.964 83.3287 183.964Z" fill="url(#paint52_linear)"/>
<path d="M107.476 178.274H94.0525V139.941C94.0525 136.747 97.0727 134.133 100.764 134.133C104.455 134.133 107.476 136.747 107.476 139.941V178.274Z" fill="url(#paint53_linear)"/>
<path d="M115.529 117.87C119.959 117.87 123.583 121.007 123.583 124.84V178.274H107.476V124.84C107.476 121.007 111.1 117.87 115.529 117.87Z" fill="url(#paint54_linear)"/>
<path d="M126.267 149.234C130.697 149.234 134.321 152.37 134.321 156.203V178.274H118.213V156.203C118.213 152.37 121.838 149.234 126.267 149.234Z" fill="url(#paint55_linear)"/>
<path d="M123.583 149.234V149.64C120.898 150.57 118.214 153.183 118.214 156.203V178.274H115.529V156.203C115.529 152.37 119.556 149.234 123.583 149.234Z" fill="url(#paint56_linear)"/>
<path d="M60.962 139.756C63.7064 139.756 65.9518 142.028 65.9518 144.806V183.526H55.9722V144.806C55.9722 142.028 58.2176 139.756 60.962 139.756Z" fill="url(#paint57_linear)"/>
<path d="M67.6151 162.483C70.3595 162.483 72.6049 164.755 72.6049 167.533V183.526H62.6252V167.533C62.6252 164.755 64.8707 162.483 67.6151 162.483Z" fill="url(#paint58_linear)"/>
<path d="M65.9513 162.483V162.777C64.288 163.45 62.6247 165.344 62.6247 167.533V183.526H60.9614V167.533C60.9614 164.755 63.4563 162.483 65.9513 162.483Z" fill="url(#paint59_linear)"/>
<path d="M76.1065 131.877H71.2917V116.044C71.2917 114.725 72.3751 113.645 73.6991 113.645C75.0232 113.645 76.1065 114.725 76.1065 116.044V131.877Z" fill="url(#paint60_linear)"/>
<path d="M78.9953 106.928C80.5842 106.928 81.8842 108.223 81.8842 109.807V131.877H76.1064V109.807C76.1064 108.223 77.4064 106.928 78.9953 106.928Z" fill="url(#paint61_linear)"/>
<path d="M82.8476 119.882C84.4365 119.882 85.7365 121.178 85.7365 122.761V131.877H79.9587V122.761C79.9587 121.178 81.2587 119.882 82.8476 119.882Z" fill="url(#paint62_linear)"/>
<path d="M81.8847 119.882V120.05C80.9217 120.434 79.9588 121.514 79.9588 122.761V131.877H78.9958V122.761C78.9958 121.178 80.4403 119.882 81.8847 119.882Z" fill="url(#paint63_linear)"/>
<path d="M53.1271 120.934C59.0497 120.934 63.8509 116.133 63.8509 110.211C63.8509 104.288 59.0497 99.4869 53.1271 99.4869C47.2045 99.4869 42.4033 104.288 42.4033 110.211C42.4033 116.133 47.2045 120.934 53.1271 120.934Z" fill="url(#paint64_linear)"/>
<path d="M107.84 101.238L108.675 103.808H111.379L109.192 105.397L110.027 107.968L107.84 106.379L105.653 107.968L106.489 105.397L104.302 103.808H107.005L107.84 101.238Z" fill="#FFF5C0"/>
<path d="M59.0361 125.312L59.9207 127.882H62.7828L60.4669 129.471L61.3515 132.042L59.0361 130.453L56.7206 132.042L57.6052 129.471L55.2893 127.882H58.1515L59.0361 125.312Z" fill="#FFF5C0"/>
<path d="M71.2917 141.069L71.8813 142.884H73.7893L72.2459 144.005L72.8355 145.82L71.2917 144.698L69.7479 145.82L70.3375 144.005L68.7942 142.884H70.7021L71.2917 141.069Z" fill="#FFF5C0"/>
<path d="M97.7728 117.87L98.6079 120.441H101.311L99.1244 122.03L99.9596 124.601L97.7728 123.012L95.586 124.601L96.4211 122.03L94.2344 120.441H96.9376L97.7728 117.87Z" fill="#FFF5C0"/>
<path d="M91.4263 105.177L92.0158 106.992H93.9238L92.3804 108.113L92.97 109.928L91.4263 108.807L89.8825 109.928L90.4721 108.113L88.9287 106.992H90.8367L91.4263 105.177Z" fill="#FFF5C0"/>
<path d="M73.918 99.4869L74.4095 100.999H75.9992L74.7128 101.934L75.2044 103.446L73.918 102.511L72.6315 103.446L73.1231 101.934L71.8367 100.999H73.4264L73.918 99.4869Z" fill="#FFF5C0"/>
<path d="M444.025 6.2433C423.479 -5.30587 397.461 1.98744 385.912 22.5334C374.362 43.0793 381.656 69.0975 402.202 80.6467C422.748 92.1958 448.766 84.9025 460.315 64.3566C471.864 43.8107 464.571 17.7925 444.025 6.2433Z" fill="url(#paint65_linear)"/>
<path d="M393.13 20.0278L417.012 61.3909H369.249L393.13 20.0278Z" fill="url(#paint66_linear)"/>
<path d="M403.635 33.1589L422.967 66.6434H384.303L403.635 33.1589Z" fill="url(#paint67_linear)"/>
<path d="M441.716 20.0278L455.362 43.6638H428.069L441.716 20.0278Z" fill="url(#paint68_linear)"/>
<path d="M459.88 14.7753L470.305 32.8307H449.456L459.88 14.7753Z" fill="url(#paint69_linear)"/>
<path d="M530.637 199.352C554.207 199.352 573.314 180.246 573.314 156.676C573.314 133.107 554.207 114 530.637 114C507.068 114 487.961 133.107 487.961 156.676C487.961 180.246 507.068 199.352 530.637 199.352Z" fill="url(#paint70_linear)"/>
<path d="M488.399 184.908L488.453 186.22L488.399 184.908ZM531.294 184.908L532.327 185.716L532.384 185.644L532.432 185.564L531.294 184.908ZM546.176 171.559L546.255 172.87L546.176 171.559ZM574.136 176.497C574.806 176.768 575.572 176.443 575.843 175.77C576.115 175.098 575.791 174.333 575.117 174.061L574.136 176.497ZM471.906 194.714C474.113 192.023 480.568 186.549 488.453 186.22L488.344 183.596C479.422 183.968 472.336 190.049 469.875 193.048L471.906 194.714ZM488.453 186.22C490.87 186.119 492.289 186.585 493.319 187.236C494.424 187.934 495.173 188.878 496.288 190.112C497.37 191.307 498.685 192.619 500.764 193.604C502.83 194.585 505.552 195.194 509.409 195.194V192.568C505.824 192.568 503.513 192.002 501.889 191.231C500.274 190.465 499.232 189.452 498.234 188.349C497.273 187.285 496.216 185.959 494.722 185.015C493.153 184.025 491.18 183.478 488.344 183.596L488.453 186.22ZM509.409 195.194C521.747 195.194 529.762 189.003 532.327 185.716L530.261 184.1C528.155 186.796 520.881 192.568 509.409 192.568V195.194ZM532.432 185.564C533.631 183.485 535.798 180.327 538.376 177.664C541.015 174.938 543.808 173.013 546.255 172.87L546.097 170.248C542.591 170.454 539.186 173.053 536.489 175.838C533.732 178.686 531.438 182.028 530.156 184.253L532.432 185.564ZM546.255 172.87C550.054 172.646 553.639 172.22 558.016 172.513C562.353 172.804 567.47 173.809 574.136 176.497L575.117 174.061C568.214 171.278 562.826 170.204 558.191 169.893C553.595 169.585 549.739 170.034 546.097 170.248L546.255 172.87Z" fill="url(#paint71_linear)"/>
<path d="M511.685 142.027L511.737 143.339L511.685 142.027ZM542.994 142.027L544.031 142.835L544.088 142.762L544.132 142.683L542.994 142.027ZM553.858 132.28L553.936 133.591L553.858 132.28ZM574.137 136.214C574.806 136.486 575.572 136.161 575.844 135.488C576.115 134.816 575.791 134.05 575.117 133.779L574.137 136.214ZM499.919 149.412C501.495 147.488 506.122 143.573 511.737 143.339L511.628 140.715C504.975 140.992 499.718 145.514 497.888 147.746L499.919 149.412ZM511.737 143.339C513.444 143.268 514.407 143.597 515.086 144.026C515.839 144.503 516.346 145.141 517.182 146.064C517.983 146.95 518.977 147.948 520.557 148.696C522.124 149.441 524.168 149.892 527.022 149.892V147.266C524.44 147.266 522.807 146.858 521.682 146.324C520.566 145.794 519.844 145.094 519.126 144.302C518.447 143.548 517.633 142.528 516.491 141.806C515.27 141.037 513.755 140.626 511.628 140.715L511.737 143.339ZM527.022 149.892C536.144 149.892 542.097 145.315 544.031 142.835L541.961 141.22C540.486 143.107 535.277 147.266 527.022 147.266V149.892ZM544.132 142.683C544.999 141.185 546.566 138.903 548.421 136.984C550.339 135.002 552.295 133.688 553.936 133.591L553.783 130.969C551.078 131.129 548.509 133.117 546.535 135.158C544.495 137.263 542.806 139.727 541.856 141.371L544.132 142.683ZM553.936 133.591C556.733 133.426 559.311 133.119 562.476 133.331C565.606 133.54 569.304 134.265 574.137 136.214L575.117 133.779C570.048 131.733 566.078 130.94 562.651 130.71C559.268 130.484 556.414 130.814 553.783 130.969L553.936 133.591Z" fill="url(#paint72_linear)"/>
<path d="M487.523 170.702L487.578 172.014L487.523 170.702ZM530.418 170.702L531.451 171.51L531.508 171.438L531.556 171.358L530.418 170.702ZM545.3 157.353L545.379 158.664L545.3 157.353ZM573.261 162.291C573.931 162.562 574.697 162.237 574.968 161.565C575.239 160.892 574.915 160.127 574.241 159.856L573.261 162.291ZM471.03 180.508C473.238 177.817 479.692 172.343 487.578 172.014L487.469 169.39C478.546 169.762 471.461 175.843 469 178.842L471.03 180.508ZM487.578 172.014C489.994 171.914 491.414 172.379 492.444 173.03C493.549 173.728 494.297 174.672 495.413 175.906C496.495 177.102 497.809 178.414 499.888 179.398C501.954 180.379 504.677 180.989 508.533 180.989V178.362C504.948 178.362 502.637 177.795 501.013 177.025C499.398 176.259 498.356 175.246 497.361 174.144C496.397 173.079 495.34 171.753 493.846 170.81C492.278 169.819 490.305 169.272 487.469 169.39L487.578 172.014ZM508.533 180.989C520.872 180.989 528.886 174.797 531.451 171.51L529.385 169.894C527.28 172.589 520.005 178.362 508.533 178.362V180.989ZM531.556 171.358C532.756 169.279 534.922 166.121 537.5 163.458C540.14 160.732 542.932 158.807 545.379 158.664L545.221 156.042C541.715 156.249 538.31 158.847 535.614 161.632C532.856 164.48 530.563 167.822 529.28 170.047L531.556 171.358ZM545.379 158.664C549.178 158.44 552.763 158.014 557.14 158.308C561.478 158.599 566.595 159.604 573.261 162.291L574.241 159.856C567.339 157.072 561.951 155.998 557.315 155.687C552.719 155.379 548.863 155.828 545.221 156.042L545.379 158.664Z" fill="url(#paint73_linear)"/>
<path d="M511.247 131.522L511.299 132.834L511.247 131.522ZM542.556 131.522L543.593 132.33L543.65 132.258L543.694 132.178L542.556 131.522ZM553.42 121.775L553.499 123.086L553.42 121.775ZM573.699 125.709C574.368 125.981 575.134 125.656 575.406 124.983C575.677 124.311 575.353 123.545 574.679 123.274L573.699 125.709ZM499.481 138.907C501.057 136.983 505.684 133.068 511.299 132.834L511.19 130.21C504.537 130.487 499.28 135.009 497.451 137.241L499.481 138.907ZM511.299 132.834C513.006 132.763 513.969 133.092 514.648 133.521C515.401 133.998 515.908 134.636 516.745 135.559C517.546 136.445 518.539 137.443 520.119 138.192C521.686 138.936 523.73 139.387 526.584 139.387V136.761C524.002 136.761 522.369 136.353 521.244 135.819C520.128 135.289 519.406 134.589 518.688 133.797C518.009 133.043 517.195 132.023 516.053 131.301C514.832 130.532 513.317 130.122 511.19 130.21L511.299 132.834ZM526.584 139.387C535.706 139.387 541.659 134.81 543.593 132.33L541.523 130.715C540.048 132.602 534.839 136.761 526.584 136.761V139.387ZM543.694 132.178C544.561 130.68 546.128 128.398 547.984 126.479C549.901 124.497 551.857 123.183 553.499 123.086L553.345 120.464C550.64 120.624 548.071 122.612 546.097 124.653C544.057 126.758 542.368 129.222 541.418 130.867L543.694 132.178ZM553.499 123.086C556.296 122.921 558.874 122.614 562.038 122.826C565.168 123.036 568.866 123.76 573.699 125.709L574.679 123.274C569.611 121.228 565.641 120.435 562.213 120.205C558.83 119.979 555.976 120.31 553.345 120.464L553.499 123.086Z" fill="url(#paint74_linear)"/>
<defs>
<linearGradient id="paint0_linear" x1="307" y1="17.2405" x2="307" y2="187.562" gradientUnits="userSpaceOnUse">
<stop stop-color="#004CFF"/>
<stop offset="1" stop-color="#8DAFFF" stop-opacity="0.74"/>
</linearGradient>
<linearGradient id="paint1_linear" x1="302.446" y1="153.869" x2="362.062" y2="239" gradientUnits="userSpaceOnUse">
<stop offset="0.316378" stop-color="#FFFAC8"/>
<stop offset="1" stop-color="#FFF9C7" stop-opacity="0"/>
</linearGradient>
<linearGradient id="paint2_linear" x1="162.635" y1="9.63491" x2="247.701" y2="94.7013" gradientUnits="userSpaceOnUse">
<stop stop-color="#6A0CE5"/>
<stop offset="1" stop-color="#CE1388" stop-opacity="0"/>
</linearGradient>
<linearGradient id="paint3_linear" x1="249.5" y1="26.5789" x2="249.5" y2="35.2105" gradientUnits="userSpaceOnUse">
<stop stop-color="white"/>
<stop offset="1" stop-color="#EBEBEB"/>
</linearGradient>
<linearGradient id="paint4_linear" x1="273.5" y1="47.6315" x2="273.5" y2="57.8147" gradientUnits="userSpaceOnUse">
<stop stop-color="white"/>
<stop offset="1" stop-color="#EBEBEB"/>
</linearGradient>
<linearGradient id="paint5_linear" x1="226.5" y1="61.4054" x2="226.5" y2="98.7608" gradientUnits="userSpaceOnUse">
<stop stop-color="#E8AB00"/>
<stop offset="0.1999" stop-color="#EAA502"/>
<stop offset="0.4615" stop-color="#EF9507"/>
<stop offset="0.756" stop-color="#F77A10"/>
<stop offset="1" stop-color="#FF5E19"/>
</linearGradient>
<linearGradient id="paint6_linear" x1="257" y1="84.9436" x2="257" y2="99.1133" gradientUnits="userSpaceOnUse">
<stop stop-color="#D35137"/>
<stop offset="0.3092" stop-color="#D8623B"/>
<stop offset="0.6604" stop-color="#DC6F3D"/>
<stop offset="1" stop-color="#DD733E"/>
</linearGradient>
<linearGradient id="paint7_linear" x1="257" y1="86.9836" x2="257" y2="91.0328" gradientUnits="userSpaceOnUse">
<stop stop-color="#56773B" stop-opacity="0.5"/>
<stop offset="0.0814" stop-color="#506B38" stop-opacity="0.4593"/>
<stop offset="0.3157" stop-color="#424E30" stop-opacity="0.3421"/>
<stop offset="0.549" stop-color="#383A2A" stop-opacity="0.2255"/>
<stop offset="0.7785" stop-color="#322D27" stop-opacity="0.1108"/>
<stop offset="1" stop-color="#302926" stop-opacity="0"/>
</linearGradient>
<linearGradient id="paint8_linear" x1="257" y1="66.898" x2="257" y2="88.153" gradientUnits="userSpaceOnUse">
<stop stop-color="#00893B"/>
<stop offset="0.3194" stop-color="#00964D"/>
<stop offset="0.6654" stop-color="#009E5A"/>
<stop offset="1" stop-color="#00A15E"/>
</linearGradient>
<linearGradient id="paint9_linear" x1="256.5" y1="44.0855" x2="256.5" y2="67.4025" gradientUnits="userSpaceOnUse">
<stop stop-color="#008C46"/>
<stop offset="0.1168" stop-color="#009552"/>
<stop offset="0.3252" stop-color="#00A060"/>
<stop offset="0.5786" stop-color="#00A668"/>
<stop offset="1" stop-color="#00A86B"/>
</linearGradient>
<linearGradient id="paint10_linear" x1="256.5" y1="20.4299" x2="256.5" y2="47.3442" gradientUnits="userSpaceOnUse">
<stop stop-color="#00D384"/>
<stop offset="1" stop-color="#00B579"/>
</linearGradient>
<linearGradient id="paint11_linear" x1="267.5" y1="95.037" x2="267.5" y2="99.0558" gradientUnits="userSpaceOnUse">
<stop stop-color="#00C154"/>
<stop offset="1" stop-color="#009E47"/>
</linearGradient>
<linearGradient id="paint12_linear" x1="264" y1="92.7335" x2="264" y2="99.084" gradientUnits="userSpaceOnUse">
<stop stop-color="#00C964"/>
<stop offset="1" stop-color="#00B248"/>
</linearGradient>
<linearGradient id="paint13_linear" x1="246.5" y1="94.7221" x2="246.5" y2="99.1475" gradientUnits="userSpaceOnUse">
<stop stop-color="#00C154"/>
<stop offset="1" stop-color="#009E47"/>
</linearGradient>
<linearGradient id="paint14_linear" x1="247" y1="96.0002" x2="253" y2="96.0002" gradientUnits="userSpaceOnUse">
<stop stop-color="#00C964"/>
<stop offset="1" stop-color="#00B248"/>
</linearGradient>
<linearGradient id="paint15_linear" x1="237.999" y1="82.9998" x2="277" y2="82.9998" gradientUnits="userSpaceOnUse">
<stop stop-color="#008C3F" stop-opacity="0"/>
<stop offset="1" stop-color="#008C3F"/>
</linearGradient>
<linearGradient id="paint16_linear" x1="244" y1="63.5" x2="271" y2="63.5" gradientUnits="userSpaceOnUse">
<stop stop-color="#00995E" stop-opacity="0.5"/>
<stop offset="1" stop-color="#00995E"/>
</linearGradient>
<linearGradient id="paint17_linear" x1="248" y1="42.4998" x2="267" y2="42.4998" gradientUnits="userSpaceOnUse">
<stop stop-color="#00AD66" stop-opacity="0"/>
<stop offset="1" stop-color="#00AD66"/>
</linearGradient>
<linearGradient id="paint18_linear" x1="196" y1="62" x2="196" y2="99" gradientUnits="userSpaceOnUse">
<stop stop-color="#FFE552"/>
<stop offset="1" stop-color="#FF9627"/>
</linearGradient>
<linearGradient id="paint19_linear" x1="179" y1="26.526" x2="179" y2="36.3583" gradientUnits="userSpaceOnUse">
<stop stop-color="white"/>
<stop offset="1" stop-color="#EBEBEB"/>
</linearGradient>
<linearGradient id="paint20_linear" x1="168.08" y1="99.0066" x2="161.832" y2="92.1597" gradientUnits="userSpaceOnUse">
<stop stop-color="#352C25"/>
<stop offset="1" stop-color="#47413C"/>
</linearGradient>
<linearGradient id="paint21_linear" x1="180.5" y1="61.7536" x2="180.5" y2="56.9383" gradientUnits="userSpaceOnUse">
<stop stop-color="#352C25"/>
<stop offset="1" stop-color="#47413C"/>
</linearGradient>
<linearGradient id="paint22_linear" x1="180" y1="70.4997" x2="202" y2="70.4997" gradientUnits="userSpaceOnUse">
<stop stop-color="#E8B500"/>
<stop offset="1" stop-color="#FF7619"/>
</linearGradient>
<linearGradient id="paint23_linear" x1="193.5" y1="15.7836" x2="193.5" y2="40.7064" gradientUnits="userSpaceOnUse">
<stop stop-color="#FFFFED"/>
<stop offset="0.41" stop-color="#F6F6E9"/>
<stop offset="1" stop-color="#E1E1E1"/>
</linearGradient>
<linearGradient id="paint24_linear" x1="195" y1="37.4558" x2="195" y2="18.9367" gradientUnits="userSpaceOnUse">
<stop stop-opacity="0.1"/>
<stop offset="1" stop-color="#6086C4" stop-opacity="0"/>
</linearGradient>
<linearGradient id="paint25_linear" x1="183" y1="21.4999" x2="188" y2="21.4999" gradientUnits="userSpaceOnUse">
<stop stop-opacity="0.08"/>
<stop offset="1" stop-color="#6086C4" stop-opacity="0"/>
</linearGradient>
<linearGradient id="paint26_linear" x1="192.326" y1="38.2308" x2="190.922" y2="40.3739" gradientUnits="userSpaceOnUse">
<stop stop-opacity="0.08"/>
<stop offset="1" stop-color="#6086C4" stop-opacity="0"/>
</linearGradient>
<linearGradient id="paint27_linear" x1="180" y1="70.4997" x2="201" y2="70.4997" gradientUnits="userSpaceOnUse">
<stop stop-color="#BF6419"/>
<stop offset="1" stop-color="#E9B800" stop-opacity="0"/>
</linearGradient>
<linearGradient id="paint28_linear" x1="161" y1="100" x2="287" y2="100" gradientUnits="userSpaceOnUse">
<stop stop-color="#EDEDED"/>
<stop offset="1" stop-color="#DDDDDD"/>
</linearGradient>
<linearGradient id="paint29_linear" x1="190" y1="49.9997" x2="190" y2="53.8523" gradientUnits="userSpaceOnUse">
<stop stop-color="#FFFFC0"/>
<stop offset="1" stop-color="#FFF1AC"/>
</linearGradient>
<linearGradient id="paint30_linear" x1="232" y1="26.7906" x2="232" y2="31.0289" gradientUnits="userSpaceOnUse">
<stop stop-color="#FFFFC0"/>
<stop offset="1" stop-color="#FFF1AC"/>
</linearGradient>
<linearGradient id="paint31_linear" x1="209" y1="22.1092" x2="209" y2="25.8831" gradientUnits="userSpaceOnUse">
<stop stop-color="#FFFFC0"/>
<stop offset="1" stop-color="#FFF1AC"/>
</linearGradient>
<linearGradient id="paint32_linear" x1="173.5" y1="45.9997" x2="173.5" y2="49.8523" gradientUnits="userSpaceOnUse">
<stop stop-color="#FFFFC0"/>
<stop offset="1" stop-color="#FFF1AC"/>
</linearGradient>
<linearGradient id="paint33_linear" x1="243" y1="19.7901" x2="243" y2="24.0289" gradientUnits="userSpaceOnUse">
<stop stop-color="#FFFFC0"/>
<stop offset="1" stop-color="#FFF1AC"/>
</linearGradient>
<linearGradient id="paint34_linear" x1="186.681" y1="30.3189" x2="184.12" y2="32.8793" gradientUnits="userSpaceOnUse">
<stop stop-opacity="0.08"/>
<stop offset="1" stop-color="#6086C4" stop-opacity="0"/>
</linearGradient>
<linearGradient id="paint35_linear" x1="267.649" y1="66.4824" x2="284.207" y2="81.3814" gradientUnits="userSpaceOnUse">
<stop stop-color="#56773B" stop-opacity="0.2"/>
<stop offset="0.0279" stop-color="#537039" stop-opacity="0.1944"/>
<stop offset="0.1595" stop-color="#465632" stop-opacity="0.1681"/>
<stop offset="0.3048" stop-color="#3C422D" stop-opacity="0.139"/>
<stop offset="0.4692" stop-color="#353429" stop-opacity="0.1062"/>
<stop offset="0.6685" stop-color="#312C27" stop-opacity="0.0663"/>
<stop offset="1" stop-color="#302926" stop-opacity="0"/>
</linearGradient>
<linearGradient id="paint36_linear" x1="262.574" y1="46.1364" x2="276.977" y2="63.2965" gradientUnits="userSpaceOnUse">
<stop stop-color="#56773B" stop-opacity="0.2"/>
<stop offset="0.0279" stop-color="#537039" stop-opacity="0.1944"/>
<stop offset="0.1595" stop-color="#465632" stop-opacity="0.1681"/>
<stop offset="0.3048" stop-color="#3C422D" stop-opacity="0.139"/>
<stop offset="0.4692" stop-color="#353429" stop-opacity="0.1062"/>
<stop offset="0.6685" stop-color="#312C27" stop-opacity="0.0663"/>
<stop offset="1" stop-color="#302926" stop-opacity="0"/>
</linearGradient>
<linearGradient id="paint37_linear" x1="263.5" y1="20.9997" x2="263.5" y2="45" gradientUnits="userSpaceOnUse">
<stop stop-color="#56773B" stop-opacity="0.1"/>
<stop offset="0.0279" stop-color="#537039" stop-opacity="0.0972"/>
<stop offset="0.1595" stop-color="#465632" stop-opacity="0.0841"/>
<stop offset="0.3048" stop-color="#3C422D" stop-opacity="0.0695"/>
<stop offset="0.4692" stop-color="#353429" stop-opacity="0.0531"/>
<stop offset="0.6685" stop-color="#312C27" stop-opacity="0.0331"/>
<stop offset="1" stop-color="#302926" stop-opacity="0"/>
</linearGradient>
<linearGradient id="paint38_linear" x1="261.5" y1="92.775" x2="261.5" y2="99.054" gradientUnits="userSpaceOnUse">
<stop stop-color="#56773B" stop-opacity="0.3"/>
<stop offset="0.0279" stop-color="#537039" stop-opacity="0.2916"/>
<stop offset="0.1595" stop-color="#465632" stop-opacity="0.2522"/>
<stop offset="0.3048" stop-color="#3C422D" stop-opacity="0.2086"/>
<stop offset="0.4692" stop-color="#353429" stop-opacity="0.1592"/>
<stop offset="0.6685" stop-color="#312C27" stop-opacity="0.0994"/>
<stop offset="1" stop-color="#302926" stop-opacity="0"/>
</linearGradient>
<linearGradient id="paint39_linear" x1="177" y1="31.9997" x2="179" y2="31.9997" gradientUnits="userSpaceOnUse">
<stop stop-opacity="0.15"/>
<stop offset="1" stop-color="#6086C4" stop-opacity="0"/>
</linearGradient>
<linearGradient id="paint40_linear" x1="280" y1="181.5" x2="316" y2="181.5" gradientUnits="userSpaceOnUse">
<stop stop-color="#55C2FF"/>
<stop offset="0.193" stop-color="#59C4FF"/>
<stop offset="0.3929" stop-color="#66CBFF"/>
<stop offset="0.5961" stop-color="#7AD6FF"/>
<stop offset="0.8002" stop-color="#97E6FF"/>
<stop offset="1" stop-color="#BBFAFF"/>
</linearGradient>
<linearGradient id="paint41_linear" x1="255.366" y1="126.748" x2="255.366" y2="133.726" gradientUnits="userSpaceOnUse">
<stop stop-color="#FFFFED" stop-opacity="0"/>
<stop offset="0.4031" stop-color="#FFFFF6" stop-opacity="0.1612"/>
<stop offset="1" stop-color="white" stop-opacity="0.4"/>
</linearGradient>
<linearGradient id="paint42_linear" x1="244.377" y1="130.869" x2="246.222" y2="130.869" gradientUnits="userSpaceOnUse">
<stop stop-opacity="0.17"/>
<stop offset="1" stop-color="#6086C4" stop-opacity="0"/>
</linearGradient>
<linearGradient id="paint43_linear" x1="236.016" y1="137.615" x2="236.016" y2="134.019" gradientUnits="userSpaceOnUse">
<stop stop-opacity="0.1"/>
<stop offset="1" stop-color="#6086C4" stop-opacity="0"/>
</linearGradient>
<linearGradient id="paint44_linear" x1="340" y1="170" x2="397" y2="170" gradientUnits="userSpaceOnUse">
<stop stop-color="#55C2FF"/>
<stop offset="0.193" stop-color="#59C4FF"/>
<stop offset="0.3929" stop-color="#66CBFF"/>
<stop offset="0.5961" stop-color="#7AD6FF"/>
<stop offset="0.8002" stop-color="#97E6FF"/>
<stop offset="1" stop-color="#BBFAFF"/>
</linearGradient>
<linearGradient id="paint45_linear" x1="325.553" y1="110.94" x2="325.553" y2="121.928" gradientUnits="userSpaceOnUse">
<stop stop-color="#FFFFED" stop-opacity="0"/>
<stop offset="0.4031" stop-color="#FFFFF6" stop-opacity="0.1612"/>
<stop offset="1" stop-color="white" stop-opacity="0.4"/>
</linearGradient>
<linearGradient id="paint46_linear" x1="308.224" y1="117.428" x2="311.133" y2="117.428" gradientUnits="userSpaceOnUse">
<stop stop-opacity="0.17"/>
<stop offset="1" stop-color="#6086C4" stop-opacity="0"/>
</linearGradient>
<linearGradient id="paint47_linear" x1="295.039" y1="128.049" x2="295.039" y2="122.388" gradientUnits="userSpaceOnUse">
<stop stop-opacity="0.1"/>
<stop offset="1" stop-color="#6086C4" stop-opacity="0"/>
</linearGradient>
<radialGradient id="paint48_radial" cx="0" cy="0" r="1" gradientUnits="userSpaceOnUse" gradientTransform="translate(83.1098 141.725) rotate(90) scale(78.1303 82.7262)">
<stop offset="0.56118" stop-color="#FFFCDE"/>
<stop offset="0.915361" stop-color="#FFF8B7" stop-opacity="0.4"/>
<stop offset="1" stop-color="#FFF8B7" stop-opacity="0"/>
</radialGradient>
<linearGradient id="paint49_linear" x1="293.874" y1="150.69" x2="293.874" y2="159.153" gradientUnits="userSpaceOnUse">
<stop stop-color="#FFFFED" stop-opacity="0"/>
<stop offset="0.4031" stop-color="#FFFFF6" stop-opacity="0.1612"/>
<stop offset="1" stop-color="white" stop-opacity="0.4"/>
</linearGradient>
<linearGradient id="paint50_linear" x1="280.49" y1="155.687" x2="282.736" y2="155.687" gradientUnits="userSpaceOnUse">
<stop stop-opacity="0.17"/>
<stop offset="1" stop-color="#6086C4" stop-opacity="0"/>
</linearGradient>
<linearGradient id="paint51_linear" x1="270.307" y1="163.868" x2="270.307" y2="159.508" gradientUnits="userSpaceOnUse">
<stop stop-opacity="0.1"/>
<stop offset="1" stop-color="#6086C4" stop-opacity="0"/>
</linearGradient>
<linearGradient id="paint52_linear" x1="53.7815" y1="106.402" x2="110.568" y2="181.04" gradientUnits="userSpaceOnUse">
<stop offset="0.180956" stop-color="#0F45C3"/>
<stop offset="0.712228" stop-color="#4F83FF"/>
<stop offset="1" stop-color="#4F83FF" stop-opacity="0.31"/>
</linearGradient>
<linearGradient id="paint53_linear" x1="100.764" y1="134.278" x2="100.764" y2="178.419" gradientUnits="userSpaceOnUse">
<stop stop-color="#00E35E"/>
<stop offset="1" stop-color="#00B248"/>
</linearGradient>
<linearGradient id="paint54_linear" x1="115.529" y1="117.619" x2="115.529" y2="178.349" gradientUnits="userSpaceOnUse">
<stop stop-color="#00E35E"/>
<stop offset="1" stop-color="#00A332"/>
</linearGradient>
<linearGradient id="paint55_linear" x1="126.267" y1="149.088" x2="126.267" y2="178.713" gradientUnits="userSpaceOnUse">
<stop stop-color="#00E35E"/>
<stop offset="1" stop-color="#00B248"/>
</linearGradient>
<linearGradient id="paint56_linear" x1="119.556" y1="149.233" x2="119.556" y2="178.274" gradientUnits="userSpaceOnUse">
<stop stop-color="#304F26" stop-opacity="0"/>
<stop offset="0.2844" stop-color="#2C4D23" stop-opacity="0.0569"/>
<stop offset="0.579" stop-color="#1F4719" stop-opacity="0.1158"/>
<stop offset="0.8773" stop-color="#0B3E09" stop-opacity="0.1755"/>
<stop offset="1" stop-color="#003900" stop-opacity="0.2"/>
</linearGradient>
<linearGradient id="paint57_linear" x1="60.962" y1="139.573" x2="60.962" y2="183.581" gradientUnits="userSpaceOnUse">
<stop stop-color="#00E35E"/>
<stop offset="1" stop-color="#00A332"/>
</linearGradient>
<linearGradient id="paint58_linear" x1="67.6151" y1="162.377" x2="67.6151" y2="183.844" gradientUnits="userSpaceOnUse">
<stop stop-color="#00E35E"/>
<stop offset="1" stop-color="#00B248"/>
</linearGradient>
<linearGradient id="paint59_linear" x1="63.4563" y1="162.482" x2="63.4563" y2="183.526" gradientUnits="userSpaceOnUse">
<stop stop-color="#304F26" stop-opacity="0"/>
<stop offset="0.2844" stop-color="#2C4D23" stop-opacity="0.0569"/>
<stop offset="0.579" stop-color="#1F4719" stop-opacity="0.1158"/>
<stop offset="0.8773" stop-color="#0B3E09" stop-opacity="0.1755"/>
<stop offset="1" stop-color="#003900" stop-opacity="0.2"/>
</linearGradient>
<linearGradient id="paint60_linear" x1="73.6991" y1="113.705" x2="73.6991" y2="131.937" gradientUnits="userSpaceOnUse">
<stop stop-color="#00E35E"/>
<stop offset="1" stop-color="#00B248"/>
</linearGradient>
<linearGradient id="paint61_linear" x1="78.9953" y1="106.824" x2="78.9953" y2="131.908" gradientUnits="userSpaceOnUse">
<stop stop-color="#00E35E"/>
<stop offset="1" stop-color="#00A332"/>
</linearGradient>
<linearGradient id="paint62_linear" x1="82.8476" y1="119.822" x2="82.8476" y2="132.058" gradientUnits="userSpaceOnUse">
<stop stop-color="#00E35E"/>
<stop offset="1" stop-color="#00B248"/>
</linearGradient>
<linearGradient id="paint63_linear" x1="80.4403" y1="119.882" x2="80.4403" y2="131.877" gradientUnits="userSpaceOnUse">
<stop stop-color="#304F26" stop-opacity="0"/>
<stop offset="0.2844" stop-color="#2C4D23" stop-opacity="0.0569"/>
<stop offset="0.579" stop-color="#1F4719" stop-opacity="0.1158"/>
<stop offset="0.8773" stop-color="#0B3E09" stop-opacity="0.1755"/>
<stop offset="1" stop-color="#003900" stop-opacity="0.2"/>
</linearGradient>
<linearGradient id="paint64_linear" x1="44.3279" y1="100.862" x2="63.8509" y2="119.147" gradientUnits="userSpaceOnUse">
<stop offset="0.52472" stop-color="#FFF5C0"/>
<stop offset="1" stop-color="#FFF1A9" stop-opacity="0.52"/>
</linearGradient>
<linearGradient id="paint65_linear" x1="422.894" y1="63.7978" x2="426.283" y2="-3.72993" gradientUnits="userSpaceOnUse">
<stop stop-color="#FF3D00"/>
<stop offset="1" stop-color="#FFB800" stop-opacity="0.43"/>
</linearGradient>
<linearGradient id="paint66_linear" x1="383.501" y1="39.7245" x2="420.706" y2="68.613" gradientUnits="userSpaceOnUse">
<stop stop-color="#502D05"/>
<stop offset="1" stop-color="#A15700" stop-opacity="0.25"/>
</linearGradient>
<linearGradient id="paint67_linear" x1="395.84" y1="49.1041" x2="425.958" y2="72.4898" gradientUnits="userSpaceOnUse">
<stop stop-color="#502D05"/>
<stop offset="1" stop-color="#A15700" stop-opacity="0.25"/>
</linearGradient>
<linearGradient id="paint68_linear" x1="436.213" y1="31.2829" x2="457.473" y2="47.791" gradientUnits="userSpaceOnUse">
<stop stop-color="#502D05"/>
<stop offset="1" stop-color="#A15700" stop-opacity="0.25"/>
</linearGradient>
<linearGradient id="paint69_linear" x1="455.677" y1="23.3732" x2="471.917" y2="35.9831" gradientUnits="userSpaceOnUse">
<stop stop-color="#502D05"/>
<stop offset="1" stop-color="#A15700" stop-opacity="0.25"/>
</linearGradient>
<linearGradient id="paint70_linear" x1="507.877" y1="145.296" x2="565.435" y2="199.352" gradientUnits="userSpaceOnUse">
<stop stop-color="#0F98C3"/>
<stop offset="1" stop-color="#ACFAFF" stop-opacity="0.47"/>
</linearGradient>
<linearGradient id="paint71_linear" x1="522.759" y1="171.101" x2="522.759" y2="193.881" gradientUnits="userSpaceOnUse">
<stop offset="0.410132" stop-color="#5FD9FF"/>
<stop offset="1" stop-color="#CBF3FF"/>
</linearGradient>
<linearGradient id="paint72_linear" x1="536.765" y1="131.946" x2="536.765" y2="148.579" gradientUnits="userSpaceOnUse">
<stop offset="0.410132" stop-color="#5FD9FF"/>
<stop offset="1" stop-color="#CBF3FF"/>
</linearGradient>
<linearGradient id="paint73_linear" x1="521.883" y1="156.895" x2="521.883" y2="179.675" gradientUnits="userSpaceOnUse">
<stop offset="0.410132" stop-color="#5FD9FF"/>
<stop offset="1" stop-color="#CBF3FF"/>
</linearGradient>
<linearGradient id="paint74_linear" x1="536.327" y1="121.441" x2="536.327" y2="138.074" gradientUnits="userSpaceOnUse">
<stop offset="0.410132" stop-color="#5FD9FF"/>
<stop offset="1" stop-color="#CBF3FF"/>
</linearGradient>
</defs>
</svg>
